%TF.GenerationSoftware,KiCad,Pcbnew,9.0.5*%
%TF.CreationDate,2025-12-10T02:12:08-06:00*%
%TF.ProjectId,WattMeter,57617474-4d65-4746-9572-2e6b69636164,rev?*%
%TF.SameCoordinates,Original*%
%TF.FileFunction,Soldermask,Top*%
%TF.FilePolarity,Negative*%
%FSLAX46Y46*%
G04 Gerber Fmt 4.6, Leading zero omitted, Abs format (unit mm)*
G04 Created by KiCad (PCBNEW 9.0.5) date 2025-12-10 02:12:08*
%MOMM*%
%LPD*%
G01*
G04 APERTURE LIST*
G04 Aperture macros list*
%AMRoundRect*
0 Rectangle with rounded corners*
0 $1 Rounding radius*
0 $2 $3 $4 $5 $6 $7 $8 $9 X,Y pos of 4 corners*
0 Add a 4 corners polygon primitive as box body*
4,1,4,$2,$3,$4,$5,$6,$7,$8,$9,$2,$3,0*
0 Add four circle primitives for the rounded corners*
1,1,$1+$1,$2,$3*
1,1,$1+$1,$4,$5*
1,1,$1+$1,$6,$7*
1,1,$1+$1,$8,$9*
0 Add four rect primitives between the rounded corners*
20,1,$1+$1,$2,$3,$4,$5,0*
20,1,$1+$1,$4,$5,$6,$7,0*
20,1,$1+$1,$6,$7,$8,$9,0*
20,1,$1+$1,$8,$9,$2,$3,0*%
G04 Aperture macros list end*
%ADD10C,2.000000*%
%ADD11R,1.000000X1.500000*%
%ADD12R,1.450000X1.500000*%
%ADD13R,1.200000X2.000000*%
%ADD14C,1.500000*%
%ADD15R,1.400000X0.450000*%
%ADD16R,1.450000X0.300000*%
%ADD17R,0.300000X1.450000*%
%ADD18C,1.600000*%
%ADD19R,1.700000X1.700000*%
%ADD20C,1.700000*%
%ADD21C,1.750000*%
%ADD22R,1.800000X1.800000*%
%ADD23C,1.800000*%
%ADD24C,1.000000*%
%ADD25C,2.600000*%
%ADD26R,1.460500X0.533400*%
%ADD27RoundRect,0.250000X-0.550000X0.550000X-0.550000X-0.550000X0.550000X-0.550000X0.550000X0.550000X0*%
%ADD28RoundRect,0.250000X-1.350000X-1.350000X1.350000X-1.350000X1.350000X1.350000X-1.350000X1.350000X0*%
%ADD29C,3.200000*%
%ADD30C,6.350000*%
%ADD31C,3.175000*%
%ADD32C,1.950000*%
%ADD33R,1.950000X1.950000*%
%ADD34RoundRect,0.102000X-0.762000X-0.762000X0.762000X-0.762000X0.762000X0.762000X-0.762000X0.762000X0*%
%ADD35C,1.728000*%
%ADD36RoundRect,0.250000X1.350000X1.350000X-1.350000X1.350000X-1.350000X-1.350000X1.350000X-1.350000X0*%
%ADD37C,1.440000*%
%ADD38R,2.280000X2.280000*%
%ADD39C,2.280000*%
%ADD40C,9.906000*%
%ADD41RoundRect,0.500000X1.350000X-0.500000X1.350000X0.500000X-1.350000X0.500000X-1.350000X-0.500000X0*%
%ADD42RoundRect,0.500000X0.900000X-0.500000X0.900000X0.500000X-0.900000X0.500000X-0.900000X-0.500000X0*%
%ADD43O,2.800000X2.000000*%
%ADD44O,3.700000X2.000000*%
%ADD45C,2.400000*%
%ADD46RoundRect,0.249999X-0.850001X-0.850001X0.850001X-0.850001X0.850001X0.850001X-0.850001X0.850001X0*%
%ADD47C,2.200000*%
%ADD48RoundRect,0.102000X-1.200000X1.200000X-1.200000X-1.200000X1.200000X-1.200000X1.200000X1.200000X0*%
%ADD49C,2.604000*%
G04 APERTURE END LIST*
D10*
%TO.C,RV1*%
X112880000Y-133050000D03*
X117880000Y-133050000D03*
%TD*%
D11*
%TO.C,J3*%
X195020000Y-62720000D03*
X197520000Y-62720000D03*
X200870000Y-62720000D03*
X202520000Y-62720000D03*
X205020000Y-62720000D03*
X207520000Y-62720000D03*
X209950000Y-62720000D03*
X211650000Y-62720000D03*
X192520000Y-62720000D03*
X199220000Y-62720000D03*
D12*
X215100000Y-62720000D03*
D13*
X187520000Y-41710000D03*
X215520000Y-40510000D03*
D14*
X189820000Y-38410000D03*
X213970000Y-38410000D03*
%TD*%
D15*
%TO.C,IC2*%
X80560000Y-72925000D03*
X80560000Y-73575000D03*
X80560000Y-74225000D03*
X80560000Y-74875000D03*
X84960000Y-74875000D03*
X84960000Y-74225000D03*
X84960000Y-73575000D03*
X84960000Y-72925000D03*
%TD*%
D16*
%TO.C,IC1*%
X146955000Y-88585000D03*
X146955000Y-89085000D03*
X146955000Y-89585000D03*
X146955000Y-90085000D03*
X146955000Y-90585000D03*
X146955000Y-91085000D03*
X146955000Y-91585000D03*
X146955000Y-92085000D03*
X146955000Y-92585000D03*
X146955000Y-93085000D03*
X146955000Y-93585000D03*
X146955000Y-94085000D03*
D17*
X148430000Y-95560000D03*
X148930000Y-95560000D03*
X149430000Y-95560000D03*
X149930000Y-95560000D03*
X150430000Y-95560000D03*
X150930000Y-95560000D03*
X151430000Y-95560000D03*
X151930000Y-95560000D03*
X152430000Y-95560000D03*
X152930000Y-95560000D03*
X153430000Y-95560000D03*
X153930000Y-95560000D03*
D16*
X155405000Y-94085000D03*
X155405000Y-93585000D03*
X155405000Y-93085000D03*
X155405000Y-92585000D03*
X155405000Y-92085000D03*
X155405000Y-91585000D03*
X155405000Y-91085000D03*
X155405000Y-90585000D03*
X155405000Y-90085000D03*
X155405000Y-89585000D03*
X155405000Y-89085000D03*
X155405000Y-88585000D03*
D17*
X153930000Y-87110000D03*
X153430000Y-87110000D03*
X152930000Y-87110000D03*
X152430000Y-87110000D03*
X151930000Y-87110000D03*
X151430000Y-87110000D03*
X150930000Y-87110000D03*
X150430000Y-87110000D03*
X149930000Y-87110000D03*
X149430000Y-87110000D03*
X148930000Y-87110000D03*
X148430000Y-87110000D03*
%TD*%
D18*
%TO.C,C8*%
X154650000Y-78350000D03*
X159650000Y-78350000D03*
%TD*%
D19*
%TO.C,J14*%
X185480000Y-152140000D03*
D20*
X185480000Y-149600000D03*
X188020000Y-152140000D03*
X188020000Y-149600000D03*
%TD*%
D18*
%TO.C,R18*%
X172580000Y-130350000D03*
X182740000Y-130350000D03*
%TD*%
%TO.C,C9*%
X155050000Y-72480000D03*
X160050000Y-72480000D03*
%TD*%
D21*
%TO.C,T1*%
X124720000Y-143510000D03*
X124720000Y-158750000D03*
X117100000Y-151130000D03*
%TD*%
D22*
%TO.C,D6*%
X124940000Y-100715000D03*
D23*
X124940000Y-103255000D03*
%TD*%
D18*
%TO.C,C13*%
X161080000Y-60160000D03*
X163580000Y-60160000D03*
%TD*%
D10*
%TO.C,C3*%
X86510000Y-82230000D03*
X81510000Y-82230000D03*
%TD*%
D18*
%TO.C,R19*%
X172700000Y-140570000D03*
X182860000Y-140570000D03*
%TD*%
D19*
%TO.C,J9*%
X135760000Y-84550000D03*
D20*
X135760000Y-82010000D03*
X138300000Y-84550000D03*
X138300000Y-82010000D03*
%TD*%
D24*
%TO.C,Y2*%
X132515000Y-46440000D03*
X132515000Y-44540000D03*
%TD*%
D19*
%TO.C,J1*%
X190740000Y-136550000D03*
D20*
X190740000Y-139090000D03*
X190740000Y-141630000D03*
X190740000Y-144170000D03*
%TD*%
D18*
%TO.C,R4*%
X121490000Y-86190000D03*
X121490000Y-76030000D03*
%TD*%
%TO.C,C22*%
X141780000Y-98370000D03*
X144280000Y-98370000D03*
%TD*%
D19*
%TO.C,J10*%
X135680000Y-91520000D03*
D20*
X135680000Y-88980000D03*
X138220000Y-91520000D03*
X138220000Y-88980000D03*
%TD*%
D18*
%TO.C,R3*%
X65630000Y-67900000D03*
X75790000Y-67900000D03*
%TD*%
D25*
%TO.C,L1*%
X80990000Y-62510000D03*
X85990000Y-62510000D03*
%TD*%
D18*
%TO.C,R5*%
X65660000Y-74790000D03*
X75820000Y-74790000D03*
%TD*%
%TO.C,R7*%
X156320000Y-60490000D03*
X146160000Y-60490000D03*
%TD*%
%TO.C,C21*%
X142090000Y-110850000D03*
X144590000Y-110850000D03*
%TD*%
D26*
%TO.C,U3*%
X135425850Y-48765000D03*
X135425850Y-50035000D03*
X135425850Y-51305000D03*
X135425850Y-52575000D03*
X140874150Y-52575000D03*
X140874150Y-51305000D03*
X140874150Y-50035000D03*
X140874150Y-48765000D03*
%TD*%
D18*
%TO.C,C23*%
X180540000Y-134780000D03*
X175540000Y-134780000D03*
%TD*%
D19*
%TO.C,J17*%
X176435000Y-112340000D03*
D20*
X178975000Y-112340000D03*
%TD*%
D27*
%TO.C,C2*%
X72380000Y-58480000D03*
D18*
X72380000Y-63480000D03*
%TD*%
D28*
%TO.C,D2*%
X100040000Y-92490000D03*
D29*
X115280000Y-92490000D03*
%TD*%
D22*
%TO.C,D5*%
X128340000Y-67660000D03*
D23*
X130880000Y-67660000D03*
%TD*%
D19*
%TO.C,J13*%
X138200000Y-96250000D03*
D20*
X135660000Y-96250000D03*
%TD*%
D10*
%TO.C,C4*%
X72790000Y-85080000D03*
X72790000Y-80080000D03*
%TD*%
D18*
%TO.C,R13*%
X125020000Y-107510000D03*
X125020000Y-117670000D03*
%TD*%
%TO.C,R2*%
X177810000Y-59700000D03*
X167650000Y-59700000D03*
%TD*%
D30*
%TO.C,REF\u002A\u002A*%
X60710000Y-50510000D03*
X60710000Y-150510000D03*
X230710000Y-50510000D03*
X230710000Y-150510000D03*
%TD*%
D18*
%TO.C,R14*%
X182740000Y-125700000D03*
X172580000Y-125700000D03*
%TD*%
D10*
%TO.C,F2*%
X175010000Y-147650000D03*
X180090000Y-147660000D03*
%TD*%
D31*
%TO.C,T4*%
X135096000Y-124235000D03*
X135096000Y-130585000D03*
X135096000Y-136935000D03*
X135096000Y-143285000D03*
X165576000Y-143285000D03*
X165576000Y-136935000D03*
X165576000Y-130585000D03*
X165576000Y-124235000D03*
%TD*%
D18*
%TO.C,R11*%
X138310000Y-106590000D03*
X148470000Y-106590000D03*
%TD*%
D19*
%TO.C,J12*%
X176380000Y-100130000D03*
D20*
X176380000Y-97590000D03*
X178920000Y-100130000D03*
X178920000Y-97590000D03*
%TD*%
D19*
%TO.C,J2*%
X190500000Y-125535000D03*
D20*
X190500000Y-128075000D03*
%TD*%
D32*
%TO.C,F1*%
X105220000Y-133900000D03*
D33*
X100220000Y-133900000D03*
D32*
X105220000Y-153900000D03*
X100220000Y-153900000D03*
%TD*%
D34*
%TO.C,U1*%
X197177500Y-94900000D03*
D35*
X197177500Y-97440000D03*
X197177500Y-99980000D03*
X197177500Y-102520000D03*
X197177500Y-105060000D03*
X197177500Y-107600000D03*
X197177500Y-110140000D03*
X197177500Y-112680000D03*
X197177500Y-115220000D03*
X197177500Y-117760000D03*
X197177500Y-120300000D03*
X197177500Y-122840000D03*
X197177500Y-125380000D03*
X197177500Y-127920000D03*
X197177500Y-130460000D03*
X197177500Y-133000000D03*
X220037500Y-94900000D03*
X220037500Y-97440000D03*
X220037500Y-99980000D03*
X220037500Y-102520000D03*
X220037500Y-105060000D03*
X220037500Y-107600000D03*
X220037500Y-110140000D03*
X220037500Y-112680000D03*
X220037500Y-115220000D03*
X220037500Y-117760000D03*
X220037500Y-120300000D03*
X220037500Y-122840000D03*
X220037500Y-125380000D03*
X220037500Y-127920000D03*
X220037500Y-130460000D03*
X220037500Y-133000000D03*
%TD*%
D18*
%TO.C,C24*%
X175010000Y-120220000D03*
X180010000Y-120220000D03*
%TD*%
D27*
%TO.C,C5*%
X92070000Y-68900000D03*
D18*
X92070000Y-73900000D03*
%TD*%
D14*
%TO.C,Y1*%
X156950000Y-109030000D03*
X161830000Y-109030000D03*
%TD*%
D19*
%TO.C,J18*%
X119300000Y-59570000D03*
D20*
X121840000Y-59570000D03*
%TD*%
D18*
%TO.C,C12*%
X157830000Y-83040000D03*
X155330000Y-83040000D03*
%TD*%
D32*
%TO.C,F3*%
X84450000Y-133580000D03*
D33*
X84450000Y-128580000D03*
D32*
X64450000Y-133580000D03*
X64450000Y-128580000D03*
%TD*%
D36*
%TO.C,D1*%
X109620000Y-60790000D03*
D29*
X94380000Y-60790000D03*
%TD*%
D19*
%TO.C,J16*%
X176380000Y-107440000D03*
D20*
X176380000Y-104900000D03*
X178920000Y-107440000D03*
X178920000Y-104900000D03*
%TD*%
D18*
%TO.C,C15*%
X148060000Y-83750000D03*
X145560000Y-83750000D03*
%TD*%
D37*
%TO.C,RV2*%
X123150000Y-67610000D03*
X120610000Y-67610000D03*
X118070000Y-67610000D03*
%TD*%
D38*
%TO.C,BT1*%
X117825000Y-41470000D03*
D39*
X117825000Y-54270000D03*
D40*
X117875000Y-47690000D03*
%TD*%
D19*
%TO.C,J15*%
X122220000Y-128250000D03*
D20*
X122220000Y-125710000D03*
X124760000Y-128250000D03*
X124760000Y-125710000D03*
%TD*%
D41*
%TO.C,F4*%
X115440000Y-121670000D03*
D42*
X115440000Y-114400000D03*
D43*
X115440000Y-105320000D03*
D44*
X115440000Y-98050000D03*
%TD*%
D45*
%TO.C,R8*%
X92140000Y-88600000D03*
X92140000Y-93680000D03*
%TD*%
D22*
%TO.C,PS1*%
X66640000Y-108580000D03*
D23*
X66640000Y-119330000D03*
X105140000Y-119330000D03*
X105140000Y-111330000D03*
%TD*%
D46*
%TO.C,D4*%
X101910000Y-68920000D03*
D47*
X112070000Y-68920000D03*
%TD*%
D19*
%TO.C,J19*%
X121940000Y-91625000D03*
D20*
X121940000Y-94165000D03*
%TD*%
D45*
%TO.C,C6*%
X99660000Y-80570000D03*
X114660000Y-80570000D03*
%TD*%
D18*
%TO.C,C16*%
X151660000Y-103410000D03*
X154160000Y-103410000D03*
%TD*%
D48*
%TO.C,J11*%
X76160000Y-148730000D03*
D49*
X76160000Y-156350000D03*
%TD*%
D18*
%TO.C,R9*%
X134990000Y-101030000D03*
X134990000Y-111190000D03*
%TD*%
D36*
%TO.C,D3*%
X86020000Y-92470000D03*
D29*
X70780000Y-92470000D03*
%TD*%
D18*
%TO.C,R1*%
X173450000Y-67430000D03*
X163290000Y-67430000D03*
%TD*%
%TO.C,R6*%
X125830000Y-86170000D03*
X125830000Y-76010000D03*
%TD*%
D19*
%TO.C,J4*%
X167930000Y-97490000D03*
D20*
X167930000Y-94950000D03*
X167930000Y-92410000D03*
X167930000Y-89870000D03*
X167930000Y-87330000D03*
X167930000Y-84790000D03*
X167930000Y-82250000D03*
X167930000Y-79710000D03*
X167930000Y-77170000D03*
X167930000Y-74630000D03*
%TD*%
D19*
%TO.C,J5*%
X175480000Y-82310000D03*
D20*
X175480000Y-79770000D03*
X175480000Y-77230000D03*
X175480000Y-74690000D03*
%TD*%
D18*
%TO.C,R12*%
X130410000Y-75940000D03*
X130410000Y-86100000D03*
%TD*%
%TO.C,R10*%
X138130000Y-101640000D03*
X148290000Y-101640000D03*
%TD*%
%TO.C,C7*%
X150000000Y-78480000D03*
X145000000Y-78480000D03*
%TD*%
%TO.C,C10*%
X150040000Y-72820000D03*
X145040000Y-72820000D03*
%TD*%
M02*
