%TF.GenerationSoftware,KiCad,Pcbnew,9.0.5*%
%TF.CreationDate,2025-12-10T02:12:08-06:00*%
%TF.ProjectId,WattMeter,57617474-4d65-4746-9572-2e6b69636164,rev?*%
%TF.SameCoordinates,Original*%
%TF.FileFunction,Paste,Top*%
%TF.FilePolarity,Positive*%
%FSLAX46Y46*%
G04 Gerber Fmt 4.6, Leading zero omitted, Abs format (unit mm)*
G04 Created by KiCad (PCBNEW 9.0.5) date 2025-12-10 02:12:08*
%MOMM*%
%LPD*%
G01*
G04 APERTURE LIST*
%ADD10R,1.000000X1.500000*%
%ADD11R,1.450000X1.500000*%
%ADD12R,1.200000X2.000000*%
%ADD13R,1.400000X0.450000*%
%ADD14R,1.450000X0.300000*%
%ADD15R,0.300000X1.450000*%
%ADD16R,1.460500X0.533400*%
%ADD17C,6.350000*%
G04 APERTURE END LIST*
D10*
%TO.C,J3*%
X195020000Y-62720000D03*
X197520000Y-62720000D03*
X200870000Y-62720000D03*
X202520000Y-62720000D03*
X205020000Y-62720000D03*
X207520000Y-62720000D03*
X209950000Y-62720000D03*
X211650000Y-62720000D03*
X192520000Y-62720000D03*
X199220000Y-62720000D03*
D11*
X215100000Y-62720000D03*
D12*
X187520000Y-41710000D03*
X215520000Y-40510000D03*
%TD*%
D13*
%TO.C,IC2*%
X80560000Y-72925000D03*
X80560000Y-73575000D03*
X80560000Y-74225000D03*
X80560000Y-74875000D03*
X84960000Y-74875000D03*
X84960000Y-74225000D03*
X84960000Y-73575000D03*
X84960000Y-72925000D03*
%TD*%
D14*
%TO.C,IC1*%
X146955000Y-88585000D03*
X146955000Y-89085000D03*
X146955000Y-89585000D03*
X146955000Y-90085000D03*
X146955000Y-90585000D03*
X146955000Y-91085000D03*
X146955000Y-91585000D03*
X146955000Y-92085000D03*
X146955000Y-92585000D03*
X146955000Y-93085000D03*
X146955000Y-93585000D03*
X146955000Y-94085000D03*
D15*
X148430000Y-95560000D03*
X148930000Y-95560000D03*
X149430000Y-95560000D03*
X149930000Y-95560000D03*
X150430000Y-95560000D03*
X150930000Y-95560000D03*
X151430000Y-95560000D03*
X151930000Y-95560000D03*
X152430000Y-95560000D03*
X152930000Y-95560000D03*
X153430000Y-95560000D03*
X153930000Y-95560000D03*
D14*
X155405000Y-94085000D03*
X155405000Y-93585000D03*
X155405000Y-93085000D03*
X155405000Y-92585000D03*
X155405000Y-92085000D03*
X155405000Y-91585000D03*
X155405000Y-91085000D03*
X155405000Y-90585000D03*
X155405000Y-90085000D03*
X155405000Y-89585000D03*
X155405000Y-89085000D03*
X155405000Y-88585000D03*
D15*
X153930000Y-87110000D03*
X153430000Y-87110000D03*
X152930000Y-87110000D03*
X152430000Y-87110000D03*
X151930000Y-87110000D03*
X151430000Y-87110000D03*
X150930000Y-87110000D03*
X150430000Y-87110000D03*
X149930000Y-87110000D03*
X149430000Y-87110000D03*
X148930000Y-87110000D03*
X148430000Y-87110000D03*
%TD*%
D16*
%TO.C,U3*%
X135425850Y-48765000D03*
X135425850Y-50035000D03*
X135425850Y-51305000D03*
X135425850Y-52575000D03*
X140874150Y-52575000D03*
X140874150Y-51305000D03*
X140874150Y-50035000D03*
X140874150Y-48765000D03*
%TD*%
D17*
%TO.C,BT1*%
X117875000Y-47690000D03*
%TD*%
M02*
