M48
; DRILL file {KiCad 9.0.5} date 2025-12-10T02:12:05-0600
; FORMAT={-:-/ absolute / metric / decimal}
; #@! TF.CreationDate,2025-12-10T02:12:05-06:00
; #@! TF.GenerationSoftware,Kicad,Pcbnew,9.0.5
; #@! TF.FileFunction,Plated,1,2,PTH
FMAT,2
METRIC
; #@! TA.AperFunction,Plated,PTH,ViaDrill
T1C0.300
; #@! TA.AperFunction,Plated,PTH,ViaDrill
T2C0.500
; #@! TA.AperFunction,Plated,PTH,ComponentDrill
T3C0.500
; #@! TA.AperFunction,Plated,PTH,ComponentDrill
T4C0.762
; #@! TA.AperFunction,Plated,PTH,ComponentDrill
T5C0.800
; #@! TA.AperFunction,Plated,PTH,ComponentDrill
T6C0.900
; #@! TA.AperFunction,Plated,PTH,ComponentDrill
T7C1.000
; #@! TA.AperFunction,Plated,PTH,ComponentDrill
T8C1.016
; #@! TA.AperFunction,Plated,PTH,ComponentDrill
T9C1.020
; #@! TA.AperFunction,Plated,PTH,ComponentDrill
T10C1.100
; #@! TA.AperFunction,Plated,PTH,ComponentDrill
T11C1.200
; #@! TA.AperFunction,Plated,PTH,ComponentDrill
T12C1.300
; #@! TA.AperFunction,Plated,PTH,ComponentDrill
T13C1.520
; #@! TA.AperFunction,Plated,PTH,ComponentDrill
T14C1.600
; #@! TA.AperFunction,Plated,PTH,ComponentDrill
T15C3.000
%
G90
G05
T1
X78.39Y-73.53
X85.13Y-76.09
X87.28Y-74.79
X133.92Y-47.75
X140.61Y-92.095
X142.78Y-52.92
X144.315Y-91.372
X144.315Y-92.095
X144.413Y-92.788
X145.14Y-92.97
X145.67Y-93.585
X146.89Y-96.04
X146.98Y-86.31
X151.118Y-94.221
X151.93Y-93.78
X151.95Y-97.36
X152.71Y-93.66
X155.405Y-88.05
X156.64Y-87.22
X158.1Y-94.77
X158.57Y-96.99
X159.32Y-88.96
X162.53Y-97.69
X165.62Y-78.28
X165.65Y-80.74
X165.68Y-75.79
X165.69Y-93.94
X165.85Y-83.2
X166.0Y-91.54
X170.29Y-110.98
X171.48Y-101.19
X171.84Y-74.88
X172.08Y-72.7
X172.17Y-78.06
X172.53Y-107.63
X175.18Y-116.85
X222.41Y-108.73
T2
X78.63Y-67.89
X132.18Y-52.79
X143.44Y-48.94
X170.49Y-69.68
X178.6Y-78.42
X179.845Y-63.065
X179.9Y-70.98
X180.61Y-89.8
X182.2Y-84.18
X184.63Y-104.12
X184.651Y-117.57
X185.4Y-41.8
X187.72Y-117.87
X188.921Y-115.97
X190.43Y-115.24
X194.94Y-78.41
X197.177Y-82.59
X197.56Y-75.63
X198.545Y-84.005
X200.86Y-73.3
X202.385Y-82.325
X202.51Y-70.95
X204.905Y-82.825
X205.01Y-81.38
X207.51Y-73.35
X210.02Y-80.78
X214.16Y-141.63
X214.23Y-111.74
X214.5Y-85.62
X216.41Y-144.28
X218.15Y-40.32
X222.1Y-75.66
X223.69Y-78.41
X225.66Y-80.99
X227.32Y-83.04
T3
X132.515Y-44.54
X132.515Y-46.44
T5
X65.63Y-67.9
X65.66Y-74.79
X72.38Y-58.48
X72.38Y-63.48
X75.79Y-67.9
X75.82Y-74.79
X92.07Y-68.9
X92.07Y-73.9
X118.07Y-67.61
X120.61Y-67.61
X121.49Y-76.03
X121.49Y-86.19
X123.15Y-67.61
X125.02Y-107.51
X125.02Y-117.67
X125.83Y-76.01
X125.83Y-86.17
X130.41Y-75.94
X130.41Y-86.1
X134.99Y-101.03
X134.99Y-111.19
X138.13Y-101.64
X138.31Y-106.59
X141.78Y-98.37
X142.09Y-110.85
X144.28Y-98.37
X144.59Y-110.85
X145.0Y-78.48
X145.04Y-72.82
X145.56Y-83.75
X146.16Y-60.49
X148.06Y-83.75
X148.29Y-101.64
X148.47Y-106.59
X150.0Y-78.48
X150.04Y-72.82
X151.66Y-103.41
X154.16Y-103.41
X154.65Y-78.35
X155.05Y-72.48
X155.33Y-83.04
X156.32Y-60.49
X156.95Y-109.03
X157.83Y-83.04
X159.65Y-78.35
X160.05Y-72.48
X161.08Y-60.16
X161.83Y-109.03
X163.29Y-67.43
X163.58Y-60.16
X167.65Y-59.7
X172.58Y-125.7
X172.58Y-130.35
X172.7Y-140.57
X173.45Y-67.43
X175.01Y-120.22
X175.54Y-134.78
X177.81Y-59.7
X180.01Y-120.22
X180.54Y-134.78
X182.74Y-125.7
X182.74Y-130.35
X182.86Y-140.57
T6
X124.94Y-100.715
X124.94Y-103.255
X128.34Y-67.66
X130.88Y-67.66
T7
X72.79Y-80.08
X72.79Y-85.08
X81.51Y-82.23
X86.51Y-82.23
X112.88Y-133.05
X117.1Y-151.13
X117.88Y-133.05
X119.3Y-59.57
X121.84Y-59.57
X121.94Y-91.625
X121.94Y-94.165
X122.22Y-125.71
X122.22Y-128.25
X124.72Y-143.51
X124.72Y-158.75
X124.76Y-125.71
X124.76Y-128.25
X135.66Y-96.25
X135.68Y-88.98
X135.68Y-91.52
X135.76Y-82.01
X135.76Y-84.55
X138.2Y-96.25
X138.22Y-88.98
X138.22Y-91.52
X138.3Y-82.01
X138.3Y-84.55
X167.93Y-74.63
X167.93Y-77.17
X167.93Y-79.71
X167.93Y-82.25
X167.93Y-84.79
X167.93Y-87.33
X167.93Y-89.87
X167.93Y-92.41
X167.93Y-94.95
X167.93Y-97.49
X175.01Y-147.65
X175.48Y-74.69
X175.48Y-77.23
X175.48Y-79.77
X175.48Y-82.31
X176.38Y-97.59
X176.38Y-100.13
X176.38Y-104.9
X176.38Y-107.44
X176.435Y-112.34
X178.92Y-97.59
X178.92Y-100.13
X178.92Y-104.9
X178.92Y-107.44
X178.975Y-112.34
X180.09Y-147.66
X185.48Y-149.6
X185.48Y-152.14
X188.02Y-149.6
X188.02Y-152.14
X190.5Y-125.535
X190.5Y-128.075
X190.74Y-136.55
X190.74Y-139.09
X190.74Y-141.63
X190.74Y-144.17
T8
X197.177Y-94.9
X197.177Y-97.44
X197.177Y-99.98
X197.177Y-102.52
X197.177Y-105.06
X197.177Y-107.6
X197.177Y-110.14
X197.177Y-112.68
X197.177Y-115.22
X197.177Y-117.76
X197.177Y-120.3
X197.177Y-122.84
X197.177Y-125.38
X197.177Y-127.92
X197.177Y-130.46
X197.177Y-133.0
X220.037Y-94.9
X220.037Y-97.44
X220.037Y-99.98
X220.037Y-102.52
X220.037Y-105.06
X220.037Y-107.6
X220.037Y-110.14
X220.037Y-112.68
X220.037Y-115.22
X220.037Y-117.76
X220.037Y-120.3
X220.037Y-122.84
X220.037Y-125.38
X220.037Y-127.92
X220.037Y-130.46
X220.037Y-133.0
T10
X101.91Y-68.92
X112.07Y-68.92
T11
X66.64Y-108.58
X66.64Y-119.33
X92.14Y-88.6
X92.14Y-93.68
X99.66Y-80.57
X105.14Y-111.33
X105.14Y-119.33
X114.66Y-80.57
T12
X64.45Y-128.58
X64.45Y-133.58
X80.99Y-62.51
X84.45Y-128.58
X84.45Y-133.58
X85.99Y-62.51
X100.22Y-133.9
X100.22Y-153.9
X105.22Y-133.9
X105.22Y-153.9
T13
X117.825Y-41.47
X117.825Y-54.27
T14
X70.78Y-92.47
X76.16Y-148.73
X76.16Y-156.35
X86.02Y-92.47
X94.38Y-60.79
X100.04Y-92.49
X109.62Y-60.79
X115.28Y-92.49
T15
X60.71Y-50.51
X60.71Y-150.51
X230.71Y-50.51
X230.71Y-150.51
T4
G00X135.096Y-124.552
M15
G01X135.096Y-123.917
M16
G05
G00X135.096Y-130.903
M15
G01X135.096Y-130.267
M16
G05
G00X135.096Y-137.252
M15
G01X135.096Y-136.618
M16
G05
G00X135.096Y-143.602
M15
G01X135.096Y-142.968
M16
G05
G00X165.576Y-124.552
M15
G01X165.576Y-123.917
M16
G05
G00X165.576Y-130.903
M15
G01X165.576Y-130.267
M16
G05
G00X165.576Y-137.252
M15
G01X165.576Y-136.618
M16
G05
G00X165.576Y-143.602
M15
G01X165.576Y-142.968
M16
G05
T9
G00X114.595Y-98.05
M15
G01X116.285Y-98.05
M16
G05
G00X115.015Y-105.32
M15
G01X115.865Y-105.32
M16
G05
G00X115.015Y-114.4
M15
G01X115.865Y-114.4
M16
G05
G00X114.595Y-121.67
M15
G01X116.285Y-121.67
M16
G05
M30
